# xmcd
#
# Track frame offsets:
#	157
#	16967
#	38155
#	63920
#	78277
#	108930
#	120940
#	143717
#	162715
#	184000
#	197172
#
# Disc length: 2843 seconds
# Revision: 0
# Processed by: cddbd v1.5.2PL0 Copyright (c) Steve Scherf et al.
# Submitted via: dBpowerAMP V12.0
#
DISCID=890b190b
DTITLE=Gram Parsons and The Fallen Angels - Live 1973
DYEAR=1973
DGENRE=Country
TTITLE0=We'll Sweep Out the Ashes in the Morning
TTITLE1=Big Mouth Blues
TTITLE2=The New Soft Shoe
TTITLE3=Streets of Baltimore
TTITLE4=Cry One More Time
TTITLE5=California Cottonfields
TTITLE6=Love Hurts
TTITLE7=Country Baptizing
TTITLE8=Drug Store Truck Drivin' Man
TTITLE9=That's All It Took
TTITLE10=Six Days on the Road
EXTD=
EXTT0=
EXTT1=
EXTT2=
EXTT3=
EXTT4=
EXTT5=
EXTT6=
EXTT7=
EXTT8=
EXTT9=
EXTT10=
PLAYORDER=
